#tb 0: 1/1000
0,          0,          0,        0,    69888, 85f08afadfd1204d4131b9ee9c8cc10b
0,         33,         33,        0,    69888, f893de5432a082b3dffcf7499827f548
0,         66,         66,        0,    69888, cb81e0d7b657bc5a4a9cf8ad75a76a77
0,        100,        100,        0,    69888, 8a40842123965731c15fc23fb6366d1d
0,        133,        133,        0,    69888, 09c6d92af14a3fcfb12705cd5da57f2a
0,        166,        166,        0,    69888, 6bede4dc8770df534b599021b0425309
0,        200,        200,        0,    69888, 334b0b0448e9e4e6a0cddcd2e3a0af3f
0,        233,        233,        0,    69888, 09f491f0f3870ef96cff0384cd7183d1
0,        266,        266,        0,    69888, c9e5f81186ac947a77b051c8f0e76eac
0,        300,        300,        0,    69888, 917565c3327bff78b53a78ea739472ff
